<?xml version="1.0" encoding="utf-8"?>
<!-- Generator: Adobe Illustrator 25.4.1, SVG Export Plug-In . SVG Version: 6.00 Build 0)  -->
<svg version="1.1" id="Layer_1" xmlns="http://www.w3.org/2000/svg" xmlns:xlink="http://www.w3.org/1999/xlink" x="0px" y="0px"
	 viewBox="0 0 554.8 100" style="enable-background:new 0 0 554.8 100;" xml:space="preserve">
<style type="text/css">
	.st0{fill:url(#SVGID_1_);}
	.st1{fill:#FFFFFF;}
	.st2{fill:#4B9ED4;}
	.st3{fill:#F99E5D;}
	.st4{fill:#085278;}
	.st5{fill:#FDD914;}
</style>
<linearGradient id="SVGID_1_" gradientUnits="userSpaceOnUse" x1="1.1914" y1="-1579.7466" x2="99.4014" y2="-1618.3866" gradientTransform="matrix(1 0 0 -1 0 -1548.95)">
	<stop  offset="0" style="stop-color:#489DD6"/>
	<stop  offset="1" style="stop-color:#085278"/>
</linearGradient>
<circle class="st0" cx="50" cy="50" r="50"/>
<ellipse class="st1" cx="50" cy="50" rx="45" ry="45.2"/>
<rect x="42" y="42" class="st2" width="16" height="16"/>
<rect x="26" y="58" class="st2" width="16" height="16"/>
<rect x="58" y="26" class="st2" width="16" height="16"/>
<rect x="58" y="42" class="st3" width="16" height="16"/>
<path class="st4" d="M74,74L74,74V58H58C58,66.8,65.2,74,74,74z"/>
<rect x="26" y="42" class="st4" width="16" height="16"/>
<path class="st5" d="M42,42c0-8.8-7.2-16-16-16v16H42z"/>
<polygon class="st1" points="122.7,9.8 130.3,9.8 130.3,28 151.3,28 151.3,9.8 159,9.8 159,53.6 151.3,53.6 151.3,35.1 130.3,35.1 
	130.3,53.6 122.7,53.6 "/>
<path class="st1" d="M201.4,30.4c-1.7-4.2-5.1-7.4-9.2-9.1c-2.2-0.9-4.6-1.4-7-1.4c-7.1-0.1-13.5,4.1-16.3,10.6
	c-0.9,2.1-1.4,4.4-1.3,6.7v0.1c0,2.3,0.4,4.5,1.3,6.6c0.8,2,2.1,3.9,3.7,5.4c1.6,1.6,3.5,2.8,5.5,3.7c4.5,1.8,9.5,1.8,14,0
	c2.1-0.9,4-2.1,5.6-3.7c1.6-1.6,2.8-3.4,3.7-5.5c0.9-2.1,1.4-4.4,1.4-6.6V37C202.7,34.7,202.3,32.5,201.4,30.4z M195.1,37.2
	c0,1.4-0.2,2.7-0.7,4c-0.4,1.2-1.1,2.4-2,3.3c-1.9,2-4.5,3.2-7.3,3.1c-1.4,0-2.7-0.3-4-0.8c-1.2-0.5-2.3-1.3-3.2-2.3
	c-0.9-1-1.6-2.1-2.1-3.4c-0.5-1.3-0.7-2.7-0.7-4.1V37c0-1.4,0.2-2.8,0.7-4.1c0.4-1.2,1.1-2.4,2-3.3c0.9-1,2-1.7,3.1-2.3
	c2.6-1.1,5.5-1.1,8.1,0c1.2,0.5,2.3,1.3,3.2,2.3c0.9,1,1.6,2.1,2.1,3.4c0.5,1.3,0.7,2.7,0.7,4.1V37.2z"/>
<path class="st1" d="M242.5,30.4c-1.7-4.1-5.1-7.4-9.2-9.1c-2.2-0.9-4.6-1.4-7-1.4c-2.4,0-4.8,0.4-7,1.4c-2.1,0.9-4,2.1-5.6,3.8
	c-1.6,1.6-2.8,3.4-3.6,5.4c-0.9,2.1-1.4,4.4-1.4,6.7v0.1c0,2.3,0.4,4.5,1.3,6.6c0.8,2,2.1,3.9,3.6,5.4c1.6,1.6,3.5,2.8,5.5,3.7
	c4.5,1.8,9.5,1.8,14,0c4.2-1.7,7.5-5,9.3-9.2c0.9-2.1,1.3-4.4,1.3-6.6V37C243.8,34.7,243.4,32.5,242.5,30.4z M236.2,37.2
	c0,1.4-0.2,2.7-0.7,4c-0.4,1.2-1.1,2.4-2,3.3c-0.9,1-1.9,1.7-3.1,2.3c-1.3,0.6-2.7,0.9-4.1,0.8c-1.4,0-2.7-0.3-4-0.8
	c-1.2-0.5-2.3-1.3-3.2-2.3c-0.9-1-1.6-2.1-2.1-3.3c-0.5-1.3-0.8-2.7-0.8-4.1V37c0-1.4,0.2-2.8,0.7-4.1c0.4-1.2,1.1-2.4,2-3.3
	c0.9-0.9,1.9-1.7,3.1-2.3c2.6-1.1,5.5-1.1,8.1,0c1.2,0.5,2.3,1.3,3.2,2.3c0.9,1,1.6,2.1,2.1,3.4c0.5,1.3,0.7,2.7,0.7,4.1V37.2z"/>
<polygon class="st1" points="251.5,7.9 259.1,7.9 259.1,35.2 272.8,20.6 282,20.6 268.9,34 282.4,53.6 273.7,53.6 263.8,39.3 
	259.1,44.1 259.1,53.6 251.5,53.6 "/>
<path class="st1" d="M299,54.1c-1.3,0-2.6-0.2-3.8-0.5c-1.1-0.3-2.2-0.9-3.1-1.6c-0.9-0.8-1.6-1.8-2-3c-0.5-1.5-0.7-3-0.7-4.6V27.1
	h-4.2v-6.5h4.2v-9.1h7.6v9.1h8.9v6.5H297v16.2c-0.1,1.2,0.3,2.3,1.1,3.2c0.8,0.7,1.9,1.1,3,1c1.6,0,3.2-0.4,4.7-1.1v6.2
	c-1,0.5-2,1-3.1,1.2C301.5,54,300.3,54.2,299,54.1z"/>
<path class="st1" d="M313.5,7.9h7.6v17.8c0.5-0.8,1.1-1.5,1.8-2.2c0.7-0.7,1.4-1.3,2.2-1.9c0.9-0.6,1.8-1,2.8-1.3
	c1.1-0.3,2.3-0.5,3.5-0.5c3.7,0,6.6,1.1,8.7,3.4c2,2.3,3.1,5.4,3,9.2v21h-7.6V34.9c0.2-2.2-0.5-4.3-1.8-6c-1.3-1.4-3.2-2.2-5.2-2.1
	c-2-0.1-4,0.8-5.3,2.2c-1.4,1.7-2.1,3.8-2,6v18.6h-7.6L313.5,7.9z"/>
<path class="st1" d="M381.4,30.9c-0.6-2.1-1.6-4-3-5.7c-1.3-1.6-3-3-4.9-3.9c-2.2-1-4.5-1.5-6.9-1.4c-4.4-0.1-8.6,1.8-11.6,5
	c-1.5,1.6-2.6,3.4-3.3,5.5c-0.8,2.1-1.2,4.4-1.2,6.7v0.1c0,2.4,0.4,4.8,1.3,7c1.6,4.1,4.9,7.3,9,8.9c2.1,0.8,4.4,1.3,6.7,1.2
	c2.7,0.1,5.4-0.5,7.8-1.7c2.2-1.1,4.1-2.6,5.7-4.5l-4.5-3.9c-1.2,1.2-2.6,2.2-4.1,2.9c-1.5,0.7-3.2,1-4.9,1
	c-2.3,0.1-4.5-0.7-6.3-2.1c-1.8-1.6-3-3.8-3.2-6.2h24.3c0-0.4,0.1-0.7,0.1-1.1s0-0.7,0-1C382.4,35.4,382.1,33.1,381.4,30.9z
	 M358,34.8c0.2-2.3,1.2-4.5,2.8-6.3c1.5-1.6,3.6-2.5,5.8-2.4c1.2,0,2.3,0.2,3.4,0.7c1,0.4,1.8,1.1,2.5,1.9c0.7,0.8,1.3,1.7,1.7,2.8
	c0.4,1.1,0.7,2.2,0.8,3.4H358z"/>
<path class="st1" d="M422.1,30.4c-1.7-4.2-5.1-7.4-9.2-9.1c-2.2-0.9-4.6-1.4-7-1.4c-7.1-0.1-13.5,4.1-16.3,10.6
	c-0.9,2.1-1.4,4.4-1.3,6.7v0.1c0,2.3,0.4,4.5,1.3,6.6c0.8,2,2.1,3.9,3.7,5.4c1.6,1.6,3.5,2.8,5.5,3.7c4.5,1.8,9.5,1.8,14,0
	c2.1-0.9,4-2.1,5.6-3.7c1.6-1.6,2.8-3.4,3.7-5.5c0.9-2.1,1.4-4.4,1.3-6.6V37C423.4,34.7,423,32.5,422.1,30.4z M415.8,37.2
	c0,1.4-0.2,2.7-0.7,4c-0.4,1.2-1.1,2.4-2,3.3c-1.9,2-4.5,3.2-7.3,3.1c-1.4,0-2.7-0.3-4-0.8c-1.2-0.5-2.3-1.3-3.2-2.3
	c-0.9-1-1.6-2.1-2.1-3.4c-0.5-1.3-0.8-2.7-0.8-4.1V37c0-1.4,0.2-2.8,0.7-4.1c0.4-1.2,1.1-2.4,2-3.3c0.9-1,1.9-1.7,3.1-2.3
	c2.6-1.1,5.5-1.1,8.1,0c1.2,0.5,2.3,1.3,3.2,2.3c0.9,1,1.6,2.1,2,3.4c0.5,1.3,0.7,2.7,0.7,4.1L415.8,37.2z"/>
<path class="st1" d="M431.1,20.6h7.6V28c0.9-2.4,2.5-4.4,4.4-6c2.1-1.6,4.7-2.3,7.3-2.1v8H450c-1.6,0-3.1,0.3-4.6,0.8
	c-1.4,0.5-2.6,1.4-3.6,2.4c-1.1,1.2-1.8,2.6-2.3,4.1c-0.6,1.8-0.9,3.8-0.8,5.7v12.6h-7.6L431.1,20.6z"/>
<path class="st1" d="M463.7,63.8c-1.4,0-2.8-0.2-4.2-0.5c-1.2-0.4-2.5-0.9-3.6-1.5l2.6-5.6c0.7,0.4,1.4,0.7,2.1,0.9
	c0.7,0.2,1.5,0.3,2.3,0.3c1,0,1.9-0.2,2.7-0.8c0.9-0.8,1.6-1.9,2-3l-13.8-33h8.1l9.4,24.5l8.6-24.5h7.9l-13.1,34
	c-0.6,1.5-1.3,2.9-2.1,4.3c-0.6,1.1-1.4,2-2.4,2.8c-0.8,0.7-1.8,1.3-2.9,1.6C466.1,63.6,464.9,63.8,463.7,63.8z"/>
<g>
	<path class="st1" d="M133.6,92.7c-1.7,0-3.2-0.3-4.6-0.9c-1.4-0.6-2.6-1.4-3.7-2.5c-1-1.1-1.9-2.3-2.4-3.7c-0.6-1.4-0.9-3-0.9-4.6
		v-0.1c0-1.6,0.3-3.2,0.9-4.6c0.6-1.4,1.4-2.7,2.4-3.7c1-1.1,2.3-1.9,3.7-2.5c1.4-0.6,3-0.9,4.8-0.9c1,0,2,0.1,2.9,0.3
		c0.9,0.2,1.6,0.4,2.4,0.7c0.7,0.3,1.4,0.7,2,1.1c0.6,0.4,1.2,0.9,1.7,1.4l-2.6,3c-0.9-0.8-1.9-1.5-2.9-2.1c-1-0.5-2.2-0.8-3.5-0.8
		c-1.1,0-2.1,0.2-3,0.6c-0.9,0.4-1.7,1-2.4,1.7c-0.7,0.7-1.2,1.6-1.6,2.6c-0.4,1-0.6,2-0.6,3.1v0.1c0,1.1,0.2,2.2,0.6,3.1
		c0.4,1,0.9,1.9,1.6,2.6c0.7,0.7,1.5,1.3,2.4,1.7c0.9,0.4,1.9,0.6,3,0.6c1.4,0,2.6-0.3,3.6-0.8c1-0.5,2-1.3,3-2.2l2.6,2.6
		c-0.6,0.6-1.2,1.2-1.8,1.7c-0.6,0.5-1.3,0.9-2.1,1.3c-0.7,0.4-1.5,0.6-2.4,0.8C135.7,92.6,134.7,92.7,133.6,92.7z"/>
	<path class="st1" d="M146.6,75.1h4V79c0.5-1.3,1.3-2.3,2.3-3.1c1-0.8,2.3-1.1,3.8-1.1v4.2h-0.2c-0.9,0-1.7,0.1-2.4,0.4
		c-0.7,0.3-1.3,0.7-1.9,1.3c-0.5,0.6-0.9,1.3-1.2,2.1c-0.3,0.9-0.4,1.9-0.4,3v6.5h-4V75.1z"/>
	<path class="st1" d="M167.9,92.7c-1.2,0-2.4-0.2-3.5-0.7c-1.1-0.4-2-1-2.8-1.8c-0.8-0.8-1.4-1.7-1.9-2.8c-0.5-1.1-0.7-2.3-0.7-3.6
		v-0.1c0-1.2,0.2-2.4,0.6-3.5c0.4-1.1,1-2,1.7-2.9s1.6-1.5,2.7-1.9c1-0.5,2.2-0.7,3.4-0.7c1.4,0,2.6,0.2,3.6,0.8
		c1,0.5,1.9,1.2,2.6,2c0.7,0.8,1.2,1.8,1.5,3c0.3,1.1,0.5,2.3,0.5,3.5c0,0.2,0,0.4,0,0.5c0,0.2,0,0.4,0,0.6h-12.6
		c0.2,1.4,0.8,2.5,1.7,3.2c0.9,0.8,2,1.1,3.3,1.1c1,0,1.8-0.2,2.5-0.5c0.7-0.3,1.4-0.9,2.1-1.5l2.3,2.1c-0.8,1-1.8,1.8-2.9,2.3
		C170.9,92.4,169.5,92.7,167.9,92.7z M171.8,82.5c-0.1-0.6-0.2-1.2-0.4-1.8c-0.2-0.6-0.5-1-0.9-1.4c-0.4-0.4-0.8-0.7-1.3-1
		c-0.5-0.2-1.1-0.4-1.7-0.4c-1.2,0-2.2,0.4-3,1.3c-0.8,0.8-1.3,1.9-1.5,3.3H171.8z"/>
	<path class="st1" d="M190.3,92.3v-2.1c-0.6,0.7-1.3,1.3-2.2,1.8c-0.9,0.5-2,0.7-3.3,0.7c-0.8,0-1.6-0.1-2.3-0.3s-1.4-0.6-1.9-1
		c-0.6-0.4-1-1-1.3-1.7s-0.5-1.4-0.5-2.3v-0.1c0-1,0.2-1.8,0.5-2.5c0.3-0.7,0.8-1.3,1.5-1.8c0.6-0.5,1.4-0.8,2.2-1
		c0.9-0.2,1.8-0.3,2.8-0.3c1,0,1.9,0.1,2.7,0.2c0.7,0.1,1.4,0.3,2.1,0.5V82c0-1.2-0.4-2.1-1.1-2.7c-0.7-0.6-1.8-0.9-3.1-0.9
		c-1,0-1.8,0.1-2.6,0.3c-0.8,0.2-1.5,0.5-2.3,0.8l-1.1-3.2c1-0.4,1.9-0.8,2.9-1c1-0.3,2.2-0.4,3.6-0.4c2.6,0,4.5,0.6,5.7,1.9
		c1.2,1.3,1.9,3.1,1.9,5.4v10.2H190.3z M190.4,85.1c-0.5-0.2-1.1-0.4-1.8-0.5s-1.4-0.2-2.2-0.2c-1.2,0-2.2,0.2-2.9,0.7
		c-0.7,0.5-1,1.1-1,2v0.1c0,0.8,0.3,1.5,1,1.9c0.6,0.4,1.4,0.7,2.4,0.7c0.7,0,1.3-0.1,1.8-0.3c0.6-0.2,1-0.4,1.5-0.7
		c0.4-0.3,0.7-0.7,1-1.1c0.2-0.4,0.3-0.9,0.3-1.5V85.1z"/>
	<path class="st1" d="M204.7,92.6c-0.7,0-1.4-0.1-2-0.3c-0.6-0.2-1.1-0.5-1.6-0.8c-0.4-0.4-0.8-0.9-1-1.5c-0.2-0.6-0.4-1.4-0.4-2.4
		v-9.1h-2.2v-3.4h2.2v-4.7h4v4.7h4.6v3.4h-4.6v8.4c0,0.8,0.2,1.3,0.6,1.6s0.9,0.5,1.6,0.5c0.8,0,1.7-0.2,2.4-0.6v3.2
		c-0.5,0.3-1,0.5-1.6,0.6C206,92.5,205.4,92.6,204.7,92.6z"/>
	<path class="st1" d="M220.1,92.7c-1.2,0-2.4-0.2-3.5-0.7c-1.1-0.4-2-1-2.8-1.8c-0.8-0.8-1.4-1.7-1.9-2.8c-0.5-1.1-0.7-2.3-0.7-3.6
		v-0.1c0-1.2,0.2-2.4,0.6-3.5c0.4-1.1,1-2,1.7-2.9s1.6-1.5,2.7-1.9c1-0.5,2.2-0.7,3.4-0.7c1.4,0,2.6,0.2,3.6,0.8
		c1,0.5,1.9,1.2,2.6,2c0.7,0.8,1.2,1.8,1.5,3c0.3,1.1,0.5,2.3,0.5,3.5c0,0.2,0,0.4,0,0.5c0,0.2,0,0.4,0,0.6h-12.6
		c0.2,1.4,0.8,2.5,1.7,3.2s2,1.1,3.3,1.1c1,0,1.8-0.2,2.5-0.5c0.7-0.3,1.4-0.9,2.1-1.5l2.3,2.1c-0.8,1-1.8,1.8-2.9,2.3
		C223,92.4,221.7,92.7,220.1,92.7z M224,82.5c-0.1-0.6-0.2-1.2-0.4-1.8c-0.2-0.6-0.5-1-0.9-1.4c-0.4-0.4-0.8-0.7-1.3-1
		c-0.5-0.2-1.1-0.4-1.7-0.4c-1.2,0-2.2,0.4-3,1.3c-0.8,0.8-1.3,1.9-1.5,3.3H224z"/>
	<path class="st1" d="M252.2,92.3v-2.1c-0.6,0.7-1.3,1.3-2.2,1.8c-0.9,0.5-2,0.7-3.3,0.7c-0.8,0-1.6-0.1-2.3-0.3s-1.4-0.6-1.9-1
		c-0.6-0.4-1-1-1.3-1.7s-0.5-1.4-0.5-2.3v-0.1c0-1,0.2-1.8,0.5-2.5c0.3-0.7,0.8-1.3,1.5-1.8c0.6-0.5,1.4-0.8,2.2-1s1.8-0.3,2.8-0.3
		c1,0,1.9,0.1,2.7,0.2c0.7,0.1,1.4,0.3,2.1,0.5V82c0-1.2-0.4-2.1-1.1-2.7c-0.7-0.6-1.8-0.9-3.1-0.9c-1,0-1.8,0.1-2.6,0.3
		c-0.8,0.2-1.5,0.5-2.3,0.8l-1.1-3.2c1-0.4,1.9-0.8,2.9-1c1-0.3,2.2-0.4,3.6-0.4c2.6,0,4.5,0.6,5.7,1.9c1.2,1.3,1.9,3.1,1.9,5.4
		v10.2H252.2z M252.3,85.1c-0.5-0.2-1.1-0.4-1.8-0.5c-0.7-0.1-1.4-0.2-2.2-0.2c-1.2,0-2.2,0.2-2.9,0.7c-0.7,0.5-1,1.1-1,2v0.1
		c0,0.8,0.3,1.5,1,1.9c0.6,0.4,1.4,0.7,2.4,0.7c0.7,0,1.3-0.1,1.8-0.3c0.6-0.2,1-0.4,1.5-0.7c0.4-0.3,0.7-0.7,1-1.1
		c0.2-0.4,0.3-0.9,0.3-1.5V85.1z"/>
	<path class="st1" d="M260.8,75.1h4v2.6c0.3-0.4,0.6-0.8,0.9-1.1c0.3-0.3,0.7-0.7,1.1-1c0.4-0.3,0.9-0.5,1.4-0.7
		c0.5-0.2,1.1-0.2,1.8-0.2c1.2,0,2.3,0.3,3.1,0.8c0.9,0.6,1.5,1.3,2,2.2c0.7-0.9,1.5-1.7,2.5-2.2c0.9-0.6,2.1-0.8,3.4-0.8
		c1.9,0,3.4,0.6,4.4,1.7c1.1,1.1,1.6,2.8,1.6,4.9v11h-4v-9.8c0-1.4-0.3-2.4-0.9-3.1c-0.6-0.7-1.5-1.1-2.6-1.1c-1.1,0-2,0.4-2.6,1.1
		c-0.7,0.7-1,1.8-1,3.2v9.7h-4v-9.8c0-1.3-0.3-2.4-0.9-3.1c-0.6-0.7-1.5-1.1-2.6-1.1c-1.1,0-2,0.4-2.7,1.1c-0.7,0.8-1,1.8-1,3.2v9.7
		h-4V75.1z"/>
	<path class="st1" d="M302.3,92.3v-2.1c-0.6,0.7-1.3,1.3-2.2,1.8c-0.9,0.5-2,0.7-3.3,0.7c-0.8,0-1.6-0.1-2.3-0.3
		c-0.7-0.2-1.4-0.6-1.9-1c-0.6-0.4-1-1-1.3-1.7c-0.3-0.7-0.5-1.4-0.5-2.3v-0.1c0-1,0.2-1.8,0.5-2.5c0.3-0.7,0.8-1.3,1.5-1.8
		c0.6-0.5,1.4-0.8,2.2-1s1.8-0.3,2.8-0.3c1,0,1.9,0.1,2.7,0.2c0.7,0.1,1.4,0.3,2.1,0.5V82c0-1.2-0.4-2.1-1.1-2.7
		c-0.7-0.6-1.8-0.9-3.1-0.9c-1,0-1.8,0.1-2.6,0.3c-0.8,0.2-1.5,0.5-2.3,0.8l-1.1-3.2c1-0.4,1.9-0.8,2.9-1c1-0.3,2.2-0.4,3.6-0.4
		c2.6,0,4.5,0.6,5.7,1.9c1.2,1.3,1.9,3.1,1.9,5.4v10.2H302.3z M302.4,85.1c-0.5-0.2-1.1-0.4-1.8-0.5c-0.7-0.1-1.4-0.2-2.2-0.2
		c-1.2,0-2.2,0.2-2.9,0.7c-0.7,0.5-1,1.1-1,2v0.1c0,0.8,0.3,1.5,1,1.9c0.6,0.4,1.4,0.7,2.4,0.7c0.7,0,1.3-0.1,1.8-0.3
		c0.6-0.2,1-0.4,1.5-0.7c0.4-0.3,0.7-0.7,1-1.1c0.2-0.4,0.3-0.9,0.3-1.5V85.1z"/>
	<path class="st1" d="M310.1,89.6l9.9-11.3h-9.6v-3.2H325v2.7l-9.9,11.3h9.9v3.2h-15V89.6z"/>
	<path class="st1" d="M329.2,68.7h4.3v3.7h-4.3V68.7z M329.3,75.1h4v17.2h-4V75.1z"/>
	<path class="st1" d="M338.4,75.1h4v2.7c0.3-0.4,0.6-0.8,0.9-1.2c0.3-0.4,0.7-0.7,1.2-1s0.9-0.5,1.5-0.7c0.5-0.2,1.1-0.2,1.8-0.2
		c1.9,0,3.5,0.6,4.5,1.8c1.1,1.2,1.6,2.8,1.6,4.8v10.9h-4v-9.8c0-1.3-0.3-2.4-1-3.1c-0.6-0.7-1.5-1.1-2.7-1.1
		c-1.1,0-2.1,0.4-2.8,1.1c-0.7,0.7-1.1,1.8-1.1,3.1v9.7h-4V75.1z"/>
	<path class="st1" d="M366.3,97.6c-2.9,0-5.4-0.7-7.7-2l1.5-3c0.9,0.6,1.9,1,2.9,1.3c1,0.3,2.1,0.5,3.3,0.5c1.8,0,3.1-0.4,4-1.3
		c0.9-0.9,1.4-2.2,1.4-4v-1.3c-0.7,0.9-1.6,1.7-2.5,2.3c-1,0.6-2.1,0.9-3.6,0.9c-1,0-2-0.2-2.9-0.6c-0.9-0.4-1.8-0.9-2.5-1.6
		c-0.7-0.7-1.3-1.5-1.7-2.5c-0.4-1-0.7-2.1-0.7-3.4v-0.1c0-1.3,0.2-2.4,0.7-3.4c0.4-1,1-1.9,1.7-2.5c0.7-0.7,1.6-1.2,2.5-1.6
		c0.9-0.4,1.9-0.6,2.9-0.6c1.5,0,2.7,0.3,3.6,0.9c0.9,0.6,1.8,1.3,2.4,2.1v-2.6h3.9v13.7c0,2.9-0.7,5-2.2,6.5
		c-0.8,0.8-1.8,1.4-2.9,1.7C369.2,97.4,367.8,97.6,366.3,97.6z M366.6,87.6c0.7,0,1.3-0.1,1.9-0.3c0.6-0.2,1.2-0.6,1.6-1
		c0.5-0.4,0.8-0.9,1.1-1.5c0.3-0.6,0.4-1.2,0.4-1.9v-0.1c0-0.7-0.1-1.4-0.4-1.9c-0.3-0.6-0.6-1.1-1.1-1.5s-1-0.8-1.6-1
		c-0.6-0.2-1.3-0.3-1.9-0.3c-0.7,0-1.3,0.1-1.9,0.3c-0.6,0.2-1.1,0.5-1.5,1c-0.4,0.4-0.8,0.9-1,1.5c-0.2,0.6-0.4,1.2-0.4,1.9v0.1
		c0,0.7,0.1,1.4,0.4,1.9c0.3,0.6,0.6,1.1,1,1.5c0.4,0.4,0.9,0.8,1.5,1C365.3,87.5,365.9,87.6,366.6,87.6z"/>
	<path class="st1" d="M390.2,75.1h4v2.6c0.3-0.4,0.6-0.8,0.9-1.1c0.3-0.3,0.7-0.7,1.1-1c0.4-0.3,0.9-0.5,1.4-0.7
		c0.5-0.2,1.1-0.2,1.8-0.2c1.2,0,2.3,0.3,3.1,0.8c0.9,0.6,1.5,1.3,2,2.2c0.7-0.9,1.5-1.7,2.5-2.2c0.9-0.6,2.1-0.8,3.4-0.8
		c1.9,0,3.4,0.6,4.4,1.7c1.1,1.1,1.6,2.8,1.6,4.9v11h-4v-9.8c0-1.4-0.3-2.4-0.9-3.1c-0.6-0.7-1.5-1.1-2.6-1.1c-1.1,0-2,0.4-2.6,1.1
		c-0.7,0.7-1,1.8-1,3.2v9.7h-4v-9.8c0-1.3-0.3-2.4-0.9-3.1c-0.6-0.7-1.5-1.1-2.6-1.1c-1.1,0-2,0.4-2.7,1.1c-0.7,0.8-1,1.8-1,3.2v9.7
		h-4V75.1z"/>
	<path class="st1" d="M427.1,92.7c-2,0-3.5-0.6-4.5-1.8c-1.1-1.2-1.6-2.8-1.6-4.8V75.1h4v9.8c0,1.3,0.3,2.4,1,3.1
		c0.6,0.7,1.5,1.1,2.7,1.1c1.1,0,2.1-0.4,2.8-1.1c0.7-0.7,1.1-1.8,1.1-3.1v-9.7h4v17.2h-4v-2.7c-0.6,0.8-1.3,1.6-2.1,2.2
		C429.5,92.4,428.4,92.7,427.1,92.7z"/>
	<path class="st1" d="M447.3,92.6c-1.2,0-2.5-0.2-3.8-0.7c-1.3-0.4-2.4-1.1-3.5-1.9l1.8-2.7c0.9,0.7,1.9,1.2,2.9,1.6
		c1,0.4,1.9,0.5,2.8,0.5c0.8,0,1.5-0.2,2-0.5c0.5-0.3,0.7-0.8,0.7-1.3v-0.1c0-0.3-0.1-0.6-0.3-0.8c-0.2-0.2-0.5-0.4-0.8-0.6
		c-0.4-0.2-0.8-0.3-1.2-0.5c-0.5-0.2-1-0.3-1.5-0.5c-0.6-0.2-1.3-0.4-1.9-0.6c-0.6-0.2-1.2-0.5-1.7-0.9c-0.5-0.4-0.9-0.9-1.3-1.4
		c-0.3-0.6-0.5-1.3-0.5-2.1V80c0-0.8,0.2-1.5,0.5-2.2c0.3-0.7,0.8-1.2,1.3-1.7c0.6-0.5,1.2-0.8,2-1c0.8-0.2,1.5-0.4,2.4-0.4
		c1.1,0,2.2,0.2,3.3,0.5c1.1,0.3,2.1,0.8,3,1.4l-1.6,2.8c-0.8-0.5-1.7-0.9-2.5-1.2c-0.8-0.3-1.6-0.4-2.3-0.4c-0.8,0-1.4,0.2-1.8,0.5
		c-0.4,0.3-0.6,0.7-0.6,1.2v0.1c0,0.3,0.1,0.6,0.3,0.8s0.5,0.4,0.9,0.6c0.4,0.2,0.8,0.4,1.2,0.5c0.5,0.2,0.9,0.3,1.4,0.5
		c0.6,0.2,1.3,0.4,1.9,0.7c0.6,0.3,1.2,0.6,1.7,1c0.5,0.4,0.9,0.8,1.3,1.4c0.3,0.5,0.5,1.2,0.5,2v0.1c0,0.9-0.2,1.7-0.5,2.4
		c-0.3,0.7-0.8,1.2-1.4,1.7s-1.3,0.8-2,1C449,92.5,448.2,92.6,447.3,92.6z"/>
	<path class="st1" d="M457.7,68.7h4.3v3.7h-4.3V68.7z M457.9,75.1h4v17.2h-4V75.1z"/>
	<path class="st1" d="M475,92.7c-1.3,0-2.5-0.2-3.6-0.7c-1.1-0.5-2-1.1-2.8-1.9c-0.8-0.8-1.4-1.7-1.9-2.8c-0.4-1.1-0.7-2.2-0.7-3.5
		v-0.1c0-1.2,0.2-2.4,0.7-3.5c0.5-1.1,1.1-2.1,1.9-2.9c0.8-0.8,1.7-1.5,2.8-1.9c1.1-0.5,2.3-0.7,3.6-0.7c1.6,0,3,0.3,4.1,0.8
		c1.1,0.5,2,1.3,2.8,2.2l-2.4,2.6c-0.6-0.6-1.3-1.1-1.9-1.5c-0.7-0.4-1.5-0.6-2.5-0.6c-0.7,0-1.4,0.1-2,0.4
		c-0.6,0.3-1.1,0.7-1.6,1.2c-0.4,0.5-0.8,1.1-1,1.7c-0.3,0.7-0.4,1.4-0.4,2.1v0.1c0,0.8,0.1,1.5,0.4,2.2c0.2,0.7,0.6,1.3,1.1,1.8
		c0.5,0.5,1,0.9,1.6,1.2c0.6,0.3,1.3,0.4,2.1,0.4c0.9,0,1.8-0.2,2.5-0.6c0.7-0.4,1.4-0.9,2-1.5l2.4,2.3c-0.8,1-1.8,1.7-2.9,2.3
		C478,92.4,476.6,92.7,475,92.7z"/>
</g>
</svg>
